<svg width="190" height="190" viewBox="0 0 190 190" fill="none" xmlns="http://www.w3.org/2000/svg">
<mask id="path-1-inside-1_0_535" fill="white">
<path d="M190 95C190 82.5244 187.543 70.171 182.769 58.6451C177.994 47.1191 170.997 36.6464 162.175 27.8249C153.354 19.0033 142.881 12.0056 131.355 7.23144C119.829 2.45725 107.476 -5.45325e-07 95 0C82.5244 5.45325e-07 70.171 2.45725 58.6451 7.23145C47.1191 12.0056 36.6464 19.0033 27.8249 27.8249C19.0033 36.6464 12.0056 47.1191 7.23144 58.6451C2.45725 70.171 -1.09065e-06 82.5244 0 95H34.0131C34.0131 86.9911 35.5906 79.0606 38.6554 71.6613C41.7203 64.262 46.2126 57.5389 51.8757 51.8757C57.5389 46.2126 64.262 41.7203 71.6613 38.6554C79.0606 35.5906 86.9911 34.0131 95 34.0131C103.009 34.0131 110.939 35.5906 118.339 38.6554C125.738 41.7203 132.461 46.2126 138.124 51.8757C143.787 57.5389 148.28 64.262 151.345 71.6613C154.409 79.0606 155.987 86.9911 155.987 95H190Z"/>
</mask>
<path d="M190 95C190 82.5244 187.543 70.171 182.769 58.6451C177.994 47.1191 170.997 36.6464 162.175 27.8249C153.354 19.0033 142.881 12.0056 131.355 7.23144C119.829 2.45725 107.476 -5.45325e-07 95 0C82.5244 5.45325e-07 70.171 2.45725 58.6451 7.23145C47.1191 12.0056 36.6464 19.0033 27.8249 27.8249C19.0033 36.6464 12.0056 47.1191 7.23144 58.6451C2.45725 70.171 -1.09065e-06 82.5244 0 95H34.0131C34.0131 86.9911 35.5906 79.0606 38.6554 71.6613C41.7203 64.262 46.2126 57.5389 51.8757 51.8757C57.5389 46.2126 64.262 41.7203 71.6613 38.6554C79.0606 35.5906 86.9911 34.0131 95 34.0131C103.009 34.0131 110.939 35.5906 118.339 38.6554C125.738 41.7203 132.461 46.2126 138.124 51.8757C143.787 57.5389 148.28 64.262 151.345 71.6613C154.409 79.0606 155.987 86.9911 155.987 95H190Z" stroke="#52459F" stroke-width="68" mask="url(#path-1-inside-1_0_535)"/>
<mask id="path-2-inside-2_0_535" fill="white">
<path d="M190 95C190 69.8044 179.991 45.6408 162.175 27.8249C144.359 10.0089 120.196 1.90221e-06 95 0C69.8044 -1.90221e-06 45.6408 10.0089 27.8249 27.8248C10.0089 45.6408 3.80443e-06 69.8044 0 95L34.03 95C34.03 78.8297 40.4536 63.3218 51.8877 51.8877C63.3218 40.4536 78.8298 34.03 95 34.03C111.17 34.03 126.678 40.4536 138.112 51.8877C149.546 63.3218 155.97 78.8298 155.97 95H190Z"/>
</mask>
<path d="M190 95C190 69.8044 179.991 45.6408 162.175 27.8249C144.359 10.0089 120.196 1.90221e-06 95 0C69.8044 -1.90221e-06 45.6408 10.0089 27.8249 27.8248C10.0089 45.6408 3.80443e-06 69.8044 0 95L34.03 95C34.03 78.8297 40.4536 63.3218 51.8877 51.8877C63.3218 40.4536 78.8298 34.03 95 34.03C111.17 34.03 126.678 40.4536 138.112 51.8877C149.546 63.3218 155.97 78.8298 155.97 95H190Z" stroke="#0F8CE9" stroke-width="68" mask="url(#path-2-inside-2_0_535)"/>
<mask id="path-3-inside-3_0_535" fill="white">
<path d="M190 95C190 75.391 183.932 56.2623 172.629 40.2389C161.325 24.2155 145.341 12.0824 126.868 5.50453L115.452 37.5627C127.308 41.7844 137.567 49.5712 144.821 59.8549C152.076 70.1386 155.97 82.4151 155.97 95H190Z"/>
</mask>
<path d="M190 95C190 75.391 183.932 56.2623 172.629 40.2389C161.325 24.2155 145.341 12.0824 126.868 5.50453L115.452 37.5627C127.308 41.7844 137.567 49.5712 144.821 59.8549C152.076 70.1386 155.97 82.4151 155.97 95H190Z" stroke="#54BD95" stroke-width="68" mask="url(#path-3-inside-3_0_535)"/>
<mask id="path-4-inside-4_0_535" fill="white">
<path d="M190 95C190 76.2465 184.45 57.9126 174.048 42.3081C163.646 26.7037 148.859 14.5269 131.549 7.312L118.457 38.7228C129.566 43.3532 139.056 51.1681 145.732 61.1829C152.408 71.1977 155.97 82.9642 155.97 95H190Z"/>
</mask>
<path d="M190 95C190 76.2465 184.45 57.9126 174.048 42.3081C163.646 26.7037 148.859 14.5269 131.549 7.312L118.457 38.7228C129.566 43.3532 139.056 51.1681 145.732 61.1829C152.408 71.1977 155.97 82.9642 155.97 95H190Z" stroke="#FEE900" stroke-width="68" mask="url(#path-4-inside-4_0_535)"/>
<path d="M8.53409 119.139C8.08002 119.133 7.63258 119.05 7.19176 118.891C6.75426 118.732 6.35653 118.466 5.99858 118.095C5.64063 117.724 5.35393 117.225 5.13849 116.599C4.92637 115.972 4.82031 115.19 4.82031 114.252C4.82031 113.364 4.90814 112.575 5.08381 111.886C5.26278 111.196 5.51965 110.615 5.8544 110.141C6.18916 109.663 6.59351 109.3 7.06747 109.052C7.54143 108.803 8.07339 108.679 8.66335 108.679C9.26989 108.679 9.80848 108.798 10.2791 109.037C10.7498 109.276 11.1309 109.605 11.4226 110.026C11.7176 110.447 11.9048 110.926 11.9844 111.463H10.468C10.3653 111.039 10.1615 110.692 9.85653 110.424C9.55161 110.156 9.15388 110.021 8.66335 110.021C7.91761 110.021 7.33594 110.346 6.91832 110.996C6.50402 111.645 6.29522 112.549 6.2919 113.705H6.36648C6.54214 113.417 6.75758 113.172 7.01278 112.969C7.27131 112.764 7.55966 112.607 7.87784 112.497C8.19934 112.384 8.53741 112.328 8.89205 112.328C9.48201 112.328 10.0156 112.472 10.4929 112.761C10.9735 113.046 11.3563 113.44 11.6413 113.944C11.9264 114.448 12.0689 115.024 12.0689 115.674C12.0689 116.324 11.9214 116.912 11.6264 117.439C11.3348 117.966 10.9238 118.384 10.3935 118.692C9.86316 118.997 9.24337 119.146 8.53409 119.139ZM8.52912 117.847C8.92022 117.847 9.26989 117.75 9.57812 117.558C9.88636 117.366 10.13 117.107 10.3089 116.783C10.4879 116.458 10.5774 116.095 10.5774 115.694C10.5774 115.303 10.4896 114.946 10.3139 114.625C10.1416 114.304 9.90294 114.048 9.59801 113.859C9.2964 113.67 8.9517 113.576 8.56392 113.576C8.26894 113.576 7.9955 113.632 7.74361 113.745C7.49503 113.858 7.27628 114.013 7.08736 114.212C6.89844 114.411 6.74929 114.64 6.63991 114.898C6.53385 115.154 6.48082 115.424 6.48082 115.709C6.48082 116.09 6.56866 116.443 6.74432 116.768C6.9233 117.093 7.1669 117.354 7.47514 117.553C7.7867 117.749 8.13802 117.847 8.52912 117.847ZM17.4245 119.169C16.639 119.166 15.9679 118.959 15.411 118.548C14.8542 118.137 14.4283 117.538 14.1333 116.753C13.8384 115.967 13.6909 115.021 13.6909 113.914C13.6909 112.81 13.8384 111.867 14.1333 111.085C14.4316 110.303 14.8592 109.706 15.416 109.295C15.9761 108.884 16.6457 108.679 17.4245 108.679C18.2034 108.679 18.8713 108.886 19.4281 109.3C19.9849 109.711 20.4108 110.308 20.7058 111.09C21.0041 111.869 21.1532 112.81 21.1532 113.914C21.1532 115.024 21.0057 115.972 20.7108 116.758C20.4158 117.54 19.9899 118.138 19.4331 118.553C18.8762 118.964 18.2067 119.169 17.4245 119.169ZM17.4245 117.842C18.1139 117.842 18.6525 117.505 19.0403 116.832C19.4314 116.16 19.627 115.187 19.627 113.914C19.627 113.069 19.5375 112.355 19.3585 111.771C19.1828 111.185 18.9293 110.741 18.5978 110.439C18.2697 110.134 17.8786 109.982 17.4245 109.982C16.7385 109.982 16.1999 110.32 15.8088 110.996C15.4177 111.672 15.2205 112.645 15.2172 113.914C15.2172 114.763 15.305 115.48 15.4806 116.067C15.6596 116.65 15.9132 117.093 16.2413 117.394C16.5694 117.692 16.9638 117.842 17.4245 117.842ZM28.2315 117.091V116.554C28.2315 116.17 28.3111 115.818 28.4702 115.5C28.6326 115.179 28.8679 114.922 29.1761 114.729C29.4877 114.534 29.8639 114.436 30.3047 114.436C30.7554 114.436 31.1333 114.532 31.4382 114.724C31.7431 114.917 31.9735 115.174 32.1293 115.495C32.2884 115.817 32.3679 116.17 32.3679 116.554V117.091C32.3679 117.475 32.2884 117.828 32.1293 118.15C31.9702 118.468 31.7365 118.725 31.4283 118.92C31.1233 119.113 30.7488 119.209 30.3047 119.209C29.8572 119.209 29.4794 119.113 29.1712 118.92C28.8629 118.725 28.6293 118.468 28.4702 118.15C28.3111 117.828 28.2315 117.475 28.2315 117.091ZM29.3899 116.554V117.091C29.3899 117.376 29.4579 117.634 29.5938 117.866C29.7296 118.098 29.9666 118.214 30.3047 118.214C30.6394 118.214 30.8731 118.098 31.0057 117.866C31.1383 117.634 31.2045 117.376 31.2045 117.091V116.554C31.2045 116.269 31.1399 116.01 31.0107 115.778C30.8847 115.546 30.6494 115.43 30.3047 115.43C29.9732 115.43 29.7379 115.546 29.5987 115.778C29.4595 116.01 29.3899 116.269 29.3899 116.554ZM23.1108 111.264V110.727C23.1108 110.343 23.1903 109.99 23.3494 109.668C23.5118 109.347 23.7472 109.09 24.0554 108.898C24.367 108.705 24.7431 108.609 25.1839 108.609C25.6347 108.609 26.0125 108.705 26.3175 108.898C26.6224 109.09 26.8527 109.347 27.0085 109.668C27.1643 109.99 27.2422 110.343 27.2422 110.727V111.264C27.2422 111.649 27.1626 112.002 27.0036 112.323C26.8478 112.641 26.6158 112.898 26.3075 113.094C26.0026 113.286 25.6281 113.382 25.1839 113.382C24.7332 113.382 24.3537 113.286 24.0455 113.094C23.7405 112.898 23.5085 112.641 23.3494 112.323C23.1903 112.002 23.1108 111.649 23.1108 111.264ZM24.2741 110.727V111.264C24.2741 111.549 24.3404 111.808 24.473 112.04C24.6089 112.272 24.8459 112.388 25.1839 112.388C25.5154 112.388 25.7474 112.272 25.88 112.04C26.0159 111.808 26.0838 111.549 26.0838 111.264V110.727C26.0838 110.442 26.0192 110.184 25.8899 109.952C25.7607 109.72 25.5253 109.604 25.1839 109.604C24.8525 109.604 24.6172 109.72 24.478 109.952C24.3421 110.184 24.2741 110.442 24.2741 110.727ZM23.5831 119L30.5831 108.818H31.7713L24.7713 119H23.5831Z" fill="black"/>
<path d="M160.766 117.011V115.768L165.165 108.818H166.145V110.648H165.523L162.376 115.629V115.709H168.407V117.011H160.766ZM165.593 119V116.634L165.603 116.067V108.818H167.06V119H165.593ZM173.684 119.169C172.899 119.166 172.228 118.959 171.671 118.548C171.114 118.137 170.688 117.538 170.393 116.753C170.098 115.967 169.951 115.021 169.951 113.914C169.951 112.81 170.098 111.867 170.393 111.085C170.691 110.303 171.119 109.706 171.676 109.295C172.236 108.884 172.905 108.679 173.684 108.679C174.463 108.679 175.131 108.886 175.688 109.3C176.245 109.711 176.671 110.308 176.966 111.09C177.264 111.869 177.413 112.81 177.413 113.914C177.413 115.024 177.266 115.972 176.971 116.758C176.676 117.54 176.25 118.138 175.693 118.553C175.136 118.964 174.467 119.169 173.684 119.169ZM173.684 117.842C174.374 117.842 174.912 117.505 175.3 116.832C175.691 116.16 175.887 115.187 175.887 113.914C175.887 113.069 175.797 112.355 175.618 111.771C175.443 111.185 175.189 110.741 174.858 110.439C174.529 110.134 174.138 109.982 173.684 109.982C172.998 109.982 172.46 110.32 172.069 110.996C171.677 111.672 171.48 112.645 171.477 113.914C171.477 114.763 171.565 115.48 171.74 116.067C171.919 116.65 172.173 117.093 172.501 117.394C172.829 117.692 173.224 117.842 173.684 117.842ZM184.491 117.091V116.554C184.491 116.17 184.571 115.818 184.73 115.5C184.892 115.179 185.128 114.922 185.436 114.729C185.747 114.534 186.124 114.436 186.564 114.436C187.015 114.436 187.393 114.532 187.698 114.724C188.003 114.917 188.233 115.174 188.389 115.495C188.548 115.817 188.628 116.17 188.628 116.554V117.091C188.628 117.475 188.548 117.828 188.389 118.15C188.23 118.468 187.996 118.725 187.688 118.92C187.383 119.113 187.009 119.209 186.564 119.209C186.117 119.209 185.739 119.113 185.431 118.92C185.123 118.725 184.889 118.468 184.73 118.15C184.571 117.828 184.491 117.475 184.491 117.091ZM185.65 116.554V117.091C185.65 117.376 185.718 117.634 185.854 117.866C185.989 118.098 186.226 118.214 186.564 118.214C186.899 118.214 187.133 118.098 187.265 117.866C187.398 117.634 187.464 117.376 187.464 117.091V116.554C187.464 116.269 187.4 116.01 187.27 115.778C187.144 115.546 186.909 115.43 186.564 115.43C186.233 115.43 185.998 115.546 185.858 115.778C185.719 116.01 185.65 116.269 185.65 116.554ZM179.371 111.264V110.727C179.371 110.343 179.45 109.99 179.609 109.668C179.772 109.347 180.007 109.09 180.315 108.898C180.627 108.705 181.003 108.609 181.444 108.609C181.894 108.609 182.272 108.705 182.577 108.898C182.882 109.09 183.113 109.347 183.268 109.668C183.424 109.99 183.502 110.343 183.502 110.727V111.264C183.502 111.649 183.422 112.002 183.263 112.323C183.108 112.641 182.876 112.898 182.567 113.094C182.262 113.286 181.888 113.382 181.444 113.382C180.993 113.382 180.613 113.286 180.305 113.094C180 112.898 179.768 112.641 179.609 112.323C179.45 112.002 179.371 111.649 179.371 111.264ZM180.534 110.727V111.264C180.534 111.549 180.6 111.808 180.733 112.04C180.869 112.272 181.106 112.388 181.444 112.388C181.775 112.388 182.007 112.272 182.14 112.04C182.276 111.808 182.344 111.549 182.344 111.264V110.727C182.344 110.442 182.279 110.184 182.15 109.952C182.02 109.72 181.785 109.604 181.444 109.604C181.112 109.604 180.877 109.72 180.738 109.952C180.602 110.184 180.534 110.442 180.534 110.727ZM179.843 119L186.843 108.818H188.031L181.031 119H179.843Z" fill="black"/>
<circle cx="95" cy="95" r="39" fill="#FEFEFD"/>
<circle cx="95" cy="95" r="30" fill="#E6F9FD"/>
<path d="M87.4802 107.757C92.533 110.897 98.8853 109.197 101.699 103.952C102.68 102.123 103.054 100.027 103.041 98.1056L102.825 83.7136C102.826 82.7833 102.261 81.9665 101.552 81.5255C100.842 81.0845 99.9391 80.9891 99.1546 81.4329L87.4695 88.4213C85.9105 89.3662 84.4341 90.7348 83.4361 92.5953C80.6225 97.8403 82.4273 104.617 87.4802 107.757ZM94.0681 95.4764C95.9033 96.6167 96.5674 99.1038 95.5455 101.009C94.5236 102.914 92.1903 103.538 90.3551 102.398C88.5199 101.258 87.8558 98.7705 88.8777 96.8655C89.903 94.9541 92.2329 94.336 94.0681 95.4764Z" fill="#0F8CE9"/>
</svg>
