<svg width="320" height="352" viewBox="0 0 320 352" fill="none" xmlns="http://www.w3.org/2000/svg">
<rect x="85" y="17" width="235" height="15" fill="#DBE5FA"/>
<rect x="85" y="42" width="214" height="15" fill="#DBE5FA"/>
<rect x="85" y="67" width="190" height="15" fill="#DBE5FA"/>
<rect x="85" y="92" width="168" height="15" fill="#DBE5FA"/>
<rect x="85" y="137" width="235" height="15" fill="#DBE5FA"/>
<rect x="85" y="162" width="214" height="15" fill="#DBE5FA"/>
<rect x="85" y="187" width="190" height="15" fill="#DBE5FA"/>
<rect x="85" y="212" width="168" height="15" fill="#DBE5FA"/>
<rect y="17" width="63" height="90" rx="2" fill="#54BD95"/>
<rect y="142" width="63" height="90" rx="2" fill="#0F8CE9"/>
<circle cx="168" cy="32" r="25" transform="rotate(180 168 32)" fill="#54BD95"/>
<path d="M220.5 22.2588L208 2L262 11.3882L218 44L220.5 22.2588Z" fill="#54BD95" stroke="white" stroke-width="2"/>
<circle cx="45" cy="307" r="45" fill="#DBE5FA"/>
<circle cx="160" cy="307" r="45" fill="#0F8CE9"/>
<circle cx="275" cy="307" r="45" fill="#54BD95"/>
<circle cx="295" cy="307" r="4" fill="white"/>
<circle cx="280" cy="307" r="6" fill="white"/>
<circle cx="260" cy="307" r="9" fill="white"/>
</svg>
