<svg width="350" height="374" viewBox="0 0 350 374" fill="none" xmlns="http://www.w3.org/2000/svg">
<g filter="url(#filter0_d_0_465)">
<g clip-path="url(#clip0_0_465)">
<rect x="44" y="36" width="267" height="174" rx="10" fill="#54BD95"/>
<path d="M310.5 36.5L40.5 211H310.5V36.5Z" fill="#5FC09B"/>
<rect x="64" y="56" width="42" height="42" rx="10" fill="#FEE900"/>
<rect x="75" y="67" width="20" height="20" rx="4" fill="#54BD95"/>
<path d="M90 83.6667V75.3334" stroke="#F9F8FE" stroke-width="1.66667" stroke-linecap="round" stroke-linejoin="round"/>
<path d="M85 83.6667V70.3334" stroke="#F9F8FE" stroke-width="1.66667" stroke-linecap="round" stroke-linejoin="round"/>
<path d="M80 83.6666V78.6666" stroke="#F9F8FE" stroke-width="1.66667" stroke-linecap="round" stroke-linejoin="round"/>
<path d="M73.4602 157H66.397V135.182H73.6839C75.8217 135.182 77.6577 135.619 79.1918 136.492C80.7259 137.359 81.9013 138.605 82.718 140.232C83.5419 141.851 83.9538 143.793 83.9538 146.059C83.9538 148.332 83.5384 150.285 82.7074 151.918C81.8835 153.552 80.6903 154.809 79.1278 155.69C77.5653 156.563 75.6761 157 73.4602 157ZM69.6889 154.124H73.2791C74.9411 154.124 76.3224 153.811 77.4233 153.186C78.5241 152.554 79.348 151.641 79.8949 150.448C80.4418 149.248 80.7152 147.785 80.7152 146.059C80.7152 144.347 80.4418 142.895 79.8949 141.702C79.3551 140.509 78.549 139.603 77.4766 138.985C76.4041 138.367 75.0724 138.058 73.4815 138.058H69.6889V154.124ZM94.6845 157.33C93.1504 157.33 91.8116 156.979 90.6681 156.276C89.5247 155.572 88.6369 154.589 88.0048 153.325C87.3727 152.06 87.0566 150.583 87.0566 148.893C87.0566 147.195 87.3727 145.711 88.0048 144.44C88.6369 143.168 89.5247 142.181 90.6681 141.478C91.8116 140.775 93.1504 140.423 94.6845 140.423C96.2186 140.423 97.5574 140.775 98.7008 141.478C99.8443 142.181 100.732 143.168 101.364 144.44C101.996 145.711 102.312 147.195 102.312 148.893C102.312 150.583 101.996 152.06 101.364 153.325C100.732 154.589 99.8443 155.572 98.7008 156.276C97.5574 156.979 96.2186 157.33 94.6845 157.33ZM94.6951 154.656C95.6895 154.656 96.5133 154.393 97.1667 153.868C97.8201 153.342 98.3031 152.643 98.6156 151.769C98.9352 150.896 99.095 149.933 99.095 148.882C99.095 147.838 98.9352 146.879 98.6156 146.006C98.3031 145.125 97.8201 144.418 97.1667 143.886C96.5133 143.353 95.6895 143.087 94.6951 143.087C93.6937 143.087 92.8627 143.353 92.2022 143.886C91.5488 144.418 91.0623 145.125 90.7427 146.006C90.4302 146.879 90.274 147.838 90.274 148.882C90.274 149.933 90.4302 150.896 90.7427 151.769C91.0623 152.643 91.5488 153.342 92.2022 153.868C92.8627 154.393 93.6937 154.656 94.6951 154.656ZM112.761 157.33C111.177 157.33 109.813 156.972 108.67 156.254C107.533 155.53 106.66 154.532 106.049 153.261C105.438 151.989 105.133 150.533 105.133 148.893C105.133 147.231 105.445 145.764 106.07 144.493C106.695 143.214 107.576 142.217 108.712 141.499C109.849 140.782 111.188 140.423 112.729 140.423C113.972 140.423 115.08 140.654 116.053 141.116C117.026 141.57 117.81 142.21 118.407 143.033C119.011 143.857 119.369 144.82 119.483 145.92H116.383C116.212 145.153 115.822 144.493 115.211 143.939C114.607 143.385 113.798 143.108 112.782 143.108C111.894 143.108 111.116 143.342 110.449 143.811C109.788 144.273 109.273 144.933 108.904 145.793C108.535 146.645 108.35 147.653 108.35 148.818C108.35 150.011 108.531 151.041 108.893 151.908C109.256 152.774 109.767 153.445 110.428 153.921C111.095 154.397 111.88 154.635 112.782 154.635C113.386 154.635 113.933 154.525 114.423 154.305C114.92 154.077 115.335 153.754 115.669 153.335C116.01 152.916 116.248 152.412 116.383 151.822H119.483C119.369 152.881 119.025 153.825 118.45 154.656C117.874 155.487 117.104 156.141 116.138 156.616C115.179 157.092 114.053 157.33 112.761 157.33ZM133.255 150.214V140.636H136.451V157H133.319V154.166H133.149C132.772 155.04 132.169 155.768 131.338 156.35C130.514 156.925 129.487 157.213 128.259 157.213C127.208 157.213 126.277 156.982 125.468 156.521C124.665 156.052 124.033 155.359 123.571 154.443C123.117 153.527 122.889 152.394 122.889 151.045V140.636H126.075V150.661C126.075 151.776 126.384 152.664 127.002 153.325C127.619 153.985 128.422 154.315 129.409 154.315C130.006 154.315 130.599 154.166 131.188 153.868C131.785 153.57 132.279 153.119 132.669 152.515C133.067 151.911 133.262 151.144 133.255 150.214ZM140.731 157V140.636H143.789V143.3H143.991C144.332 142.398 144.89 141.695 145.664 141.19C146.438 140.679 147.365 140.423 148.444 140.423C149.538 140.423 150.454 140.679 151.193 141.19C151.939 141.702 152.489 142.405 152.844 143.3H153.015C153.405 142.426 154.027 141.73 154.879 141.212C155.731 140.686 156.747 140.423 157.926 140.423C159.41 140.423 160.621 140.888 161.559 141.819C162.503 142.749 162.975 144.152 162.975 146.027V157H159.79V146.325C159.79 145.217 159.488 144.415 158.885 143.918C158.281 143.42 157.56 143.172 156.722 143.172C155.685 143.172 154.879 143.491 154.304 144.131C153.728 144.763 153.441 145.576 153.441 146.57V157H150.266V146.123C150.266 145.235 149.989 144.521 149.435 143.982C148.881 143.442 148.16 143.172 147.272 143.172C146.669 143.172 146.111 143.332 145.6 143.651C145.096 143.964 144.687 144.401 144.375 144.962C144.069 145.523 143.917 146.173 143.917 146.911V157H140.731ZM174.297 157.33C172.685 157.33 171.297 156.986 170.132 156.297C168.974 155.601 168.079 154.624 167.447 153.367C166.822 152.103 166.51 150.622 166.51 148.925C166.51 147.249 166.822 145.771 167.447 144.493C168.079 143.214 168.96 142.217 170.089 141.499C171.226 140.782 172.554 140.423 174.074 140.423C174.997 140.423 175.892 140.576 176.758 140.881C177.625 141.187 178.403 141.666 179.091 142.32C179.78 142.973 180.324 143.822 180.721 144.866C181.119 145.903 181.318 147.163 181.318 148.648V149.777H168.31V147.391H178.197C178.197 146.553 178.026 145.81 177.685 145.164C177.344 144.511 176.865 143.996 176.247 143.619C175.636 143.243 174.919 143.055 174.095 143.055C173.2 143.055 172.419 143.275 171.751 143.715C171.091 144.148 170.579 144.717 170.217 145.42C169.862 146.116 169.684 146.872 169.684 147.689V149.553C169.684 150.647 169.876 151.577 170.26 152.344C170.65 153.112 171.194 153.697 171.89 154.102C172.586 154.5 173.399 154.699 174.329 154.699C174.933 154.699 175.483 154.614 175.981 154.443C176.478 154.266 176.907 154.003 177.27 153.655C177.632 153.307 177.909 152.877 178.101 152.366L181.116 152.909C180.874 153.797 180.441 154.575 179.816 155.242C179.198 155.903 178.42 156.418 177.483 156.787C176.552 157.149 175.491 157.33 174.297 157.33ZM188.038 147.284V157H184.852V140.636H187.91V143.3H188.112C188.489 142.433 189.078 141.737 189.881 141.212C190.69 140.686 191.71 140.423 192.938 140.423C194.053 140.423 195.03 140.658 195.868 141.126C196.706 141.588 197.356 142.277 197.817 143.193C198.279 144.109 198.51 145.242 198.51 146.592V157H195.325V146.975C195.325 145.789 195.016 144.862 194.398 144.195C193.78 143.52 192.931 143.183 191.852 143.183C191.113 143.183 190.456 143.342 189.881 143.662C189.313 143.982 188.862 144.45 188.528 145.068C188.201 145.679 188.038 146.418 188.038 147.284ZM210.42 140.636V143.193H201.482V140.636H210.42ZM203.879 136.716H207.065V152.195C207.065 152.813 207.157 153.278 207.342 153.591C207.526 153.896 207.764 154.106 208.055 154.219C208.354 154.326 208.677 154.379 209.025 154.379C209.281 154.379 209.504 154.362 209.696 154.326C209.888 154.29 210.037 154.262 210.143 154.241L210.719 156.872C210.534 156.943 210.271 157.014 209.93 157.085C209.589 157.163 209.163 157.206 208.652 157.213C207.814 157.227 207.033 157.078 206.308 156.766C205.584 156.453 204.998 155.97 204.55 155.317C204.103 154.663 203.879 153.843 203.879 152.856V136.716ZM222.139 157V135.182H235.669V138.016H225.431V144.663H234.7V147.487H225.431V157H222.139ZM239.462 157V140.636H242.647V157H239.462ZM241.07 138.112C240.516 138.112 240.04 137.927 239.643 137.558C239.252 137.181 239.057 136.734 239.057 136.215C239.057 135.69 239.252 135.242 239.643 134.873C240.04 134.496 240.516 134.308 241.07 134.308C241.624 134.308 242.097 134.496 242.487 134.873C242.885 135.242 243.084 135.69 243.084 136.215C243.084 136.734 242.885 137.181 242.487 137.558C242.097 137.927 241.624 138.112 241.07 138.112ZM250.118 135.182V157H246.932V135.182H250.118ZM261.456 157.33C259.843 157.33 258.455 156.986 257.29 156.297C256.132 155.601 255.238 154.624 254.605 153.367C253.98 152.103 253.668 150.622 253.668 148.925C253.668 147.249 253.98 145.771 254.605 144.493C255.238 143.214 256.118 142.217 257.248 141.499C258.384 140.782 259.712 140.423 261.232 140.423C262.155 140.423 263.05 140.576 263.917 140.881C264.783 141.187 265.561 141.666 266.25 142.32C266.939 142.973 267.482 143.822 267.88 144.866C268.277 145.903 268.476 147.163 268.476 148.648V149.777H255.468V147.391H265.355C265.355 146.553 265.184 145.81 264.843 145.164C264.502 144.511 264.023 143.996 263.405 143.619C262.794 143.243 262.077 143.055 261.253 143.055C260.358 143.055 259.577 143.275 258.909 143.715C258.249 144.148 257.738 144.717 257.375 145.42C257.02 146.116 256.843 146.872 256.843 147.689V149.553C256.843 150.647 257.034 151.577 257.418 152.344C257.809 153.112 258.352 153.697 259.048 154.102C259.744 154.5 260.557 154.699 261.488 154.699C262.091 154.699 262.642 154.614 263.139 154.443C263.636 154.266 264.066 154.003 264.428 153.655C264.79 153.307 265.067 152.877 265.259 152.366L268.274 152.909C268.032 153.797 267.599 154.575 266.974 155.242C266.356 155.903 265.578 156.418 264.641 156.787C263.711 157.149 262.649 157.33 261.456 157.33Z" fill="white"/>
<path d="M64.9844 184.443V182.845L70.6413 173.909H71.9006V176.261H71.1016L67.0554 182.666V182.768H74.8089V184.443H64.9844ZM71.1911 187V183.957L71.2038 183.229V173.909H73.0767V187H71.1911ZM81.3576 187.179C80.5565 187.179 79.8363 187.026 79.1971 186.719C78.5621 186.408 78.055 185.982 77.6758 185.44C77.2965 184.899 77.0941 184.281 77.0685 183.587H78.9862C79.033 184.149 79.2823 184.612 79.734 184.974C80.1857 185.336 80.7269 185.517 81.3576 185.517C81.8604 185.517 82.3058 185.402 82.6935 185.172C83.0856 184.938 83.3924 184.616 83.614 184.207C83.8398 183.798 83.9528 183.331 83.9528 182.807C83.9528 182.274 83.8377 181.799 83.6076 181.381C83.3775 180.964 83.06 180.636 82.6552 180.397C82.2546 180.158 81.7944 180.037 81.2745 180.033C80.8782 180.033 80.4798 180.101 80.0792 180.237C79.6786 180.374 79.3548 180.553 79.1076 180.774L77.2987 180.506L78.0337 173.909H85.2312V175.603H79.6765L79.261 179.266H79.3377C79.5934 179.018 79.9322 178.812 80.354 178.646C80.7802 178.479 81.2362 178.396 81.7219 178.396C82.5188 178.396 83.2283 178.586 83.8505 178.965C84.4769 179.344 84.9691 179.862 85.3271 180.518C85.6893 181.17 85.8683 181.92 85.864 182.768C85.8683 183.616 85.6765 184.373 85.2887 185.038C84.9052 185.702 84.3725 186.227 83.6907 186.61C83.0131 186.989 82.2354 187.179 81.3576 187.179ZM92.769 187.179C92.1852 187.17 91.6099 187.064 91.0431 186.859C90.4806 186.655 89.9693 186.314 89.5091 185.837C89.0488 185.359 88.6802 184.718 88.4032 183.913C88.1305 183.107 87.9941 182.102 87.9941 180.896C87.9941 179.754 88.1071 178.739 88.3329 177.853C88.563 176.967 88.8933 176.219 89.3237 175.609C89.7541 174.996 90.274 174.529 90.8833 174.21C91.4927 173.89 92.1767 173.73 92.9352 173.73C93.715 173.73 94.4075 173.884 95.0126 174.19C95.6177 174.497 96.1078 174.921 96.4828 175.462C96.862 176.004 97.1028 176.619 97.2051 177.31H95.2555C95.1234 176.764 94.8613 176.319 94.4693 175.974C94.0772 175.629 93.5659 175.456 92.9352 175.456C91.9764 175.456 91.2285 175.874 90.6916 176.709C90.1589 177.544 89.8904 178.705 89.8862 180.192H89.9821C90.2079 179.822 90.4849 179.506 90.813 179.246C91.1454 178.982 91.5162 178.78 91.9252 178.639C92.3386 178.494 92.7733 178.422 93.2292 178.422C93.9877 178.422 94.6738 178.607 95.2875 178.978C95.9054 179.344 96.3975 179.852 96.764 180.499C97.1305 181.147 97.3137 181.888 97.3137 182.724C97.3137 183.559 97.1241 184.315 96.7449 184.993C96.3699 185.67 95.8414 186.207 95.1596 186.604C94.4778 186.996 93.6809 187.188 92.769 187.179ZM92.7626 185.517C93.2654 185.517 93.715 185.393 94.1113 185.146C94.5076 184.899 94.8208 184.567 95.051 184.149C95.2811 183.732 95.3961 183.265 95.3961 182.749C95.3961 182.246 95.2832 181.788 95.0574 181.375C94.8358 180.962 94.5289 180.634 94.1369 180.391C93.7491 180.148 93.3059 180.026 92.8074 180.026C92.4281 180.026 92.0765 180.099 91.7527 180.244C91.4331 180.388 91.1518 180.589 90.9089 180.844C90.666 181.1 90.4743 181.394 90.3336 181.727C90.1973 182.055 90.1291 182.402 90.1291 182.768C90.1291 183.259 90.242 183.712 90.4679 184.13C90.698 184.548 91.0112 184.884 91.4075 185.14C91.8081 185.391 92.2598 185.517 92.7626 185.517ZM113.444 178.045C113.32 177.657 113.154 177.31 112.945 177.003C112.741 176.692 112.496 176.428 112.21 176.21C111.925 175.989 111.599 175.82 111.232 175.705C110.87 175.59 110.472 175.533 110.037 175.533C109.3 175.533 108.635 175.722 108.043 176.102C107.45 176.481 106.982 177.037 106.637 177.77C106.296 178.499 106.125 179.391 106.125 180.448C106.125 181.509 106.298 182.406 106.643 183.139C106.988 183.872 107.461 184.428 108.062 184.808C108.663 185.187 109.347 185.376 110.114 185.376C110.825 185.376 111.445 185.232 111.974 184.942C112.507 184.652 112.918 184.243 113.208 183.714C113.502 183.182 113.649 182.555 113.649 181.835L114.16 181.931H110.414V180.301H115.56V181.79C115.56 182.89 115.325 183.844 114.857 184.654C114.392 185.46 113.749 186.082 112.926 186.521C112.108 186.96 111.171 187.179 110.114 187.179C108.929 187.179 107.889 186.906 106.994 186.361C106.104 185.815 105.409 185.042 104.911 184.04C104.412 183.035 104.163 181.842 104.163 180.461C104.163 179.417 104.308 178.479 104.597 177.648C104.887 176.817 105.294 176.112 105.818 175.533C106.347 174.949 106.967 174.504 107.678 174.197C108.394 173.886 109.176 173.73 110.024 173.73C110.732 173.73 111.39 173.835 111.999 174.043C112.613 174.252 113.159 174.548 113.636 174.932C114.117 175.315 114.516 175.771 114.831 176.3C115.146 176.824 115.36 177.406 115.47 178.045H113.444ZM118.067 187V173.909H122.861C123.79 173.909 124.559 174.062 125.169 174.369C125.778 174.672 126.234 175.083 126.537 175.603C126.839 176.119 126.99 176.7 126.99 177.348C126.99 177.893 126.89 178.354 126.69 178.729C126.49 179.099 126.221 179.398 125.885 179.624C125.552 179.845 125.186 180.007 124.785 180.109V180.237C125.22 180.259 125.644 180.399 126.057 180.659C126.475 180.915 126.82 181.279 127.093 181.752C127.365 182.225 127.502 182.8 127.502 183.478C127.502 184.147 127.344 184.748 127.029 185.281C126.718 185.809 126.236 186.229 125.584 186.54C124.932 186.847 124.099 187 123.085 187H118.067ZM120.042 185.306H122.893C123.839 185.306 124.517 185.123 124.926 184.756C125.335 184.39 125.539 183.932 125.539 183.382C125.539 182.969 125.435 182.589 125.226 182.244C125.017 181.899 124.719 181.624 124.331 181.42C123.948 181.215 123.492 181.113 122.963 181.113H120.042V185.306ZM120.042 179.572H122.689C123.132 179.572 123.53 179.487 123.884 179.317C124.242 179.146 124.525 178.908 124.734 178.601C124.947 178.29 125.054 177.923 125.054 177.501C125.054 176.96 124.864 176.506 124.485 176.14C124.105 175.773 123.524 175.59 122.74 175.59H120.042V179.572ZM136.583 173.909V187H134.608V173.909H136.583ZM149.011 173.909V187H147.029V175.891H146.953L143.821 177.936V176.044L147.087 173.909H149.011ZM157.11 187.217C156.1 187.213 155.237 186.947 154.521 186.418C153.805 185.89 153.257 185.121 152.878 184.111C152.499 183.101 152.309 181.884 152.309 180.461C152.309 179.042 152.499 177.83 152.878 176.824C153.262 175.818 153.811 175.051 154.527 174.523C155.248 173.994 156.108 173.73 157.11 173.73C158.111 173.73 158.97 173.996 159.686 174.529C160.402 175.058 160.949 175.825 161.328 176.83C161.712 177.832 161.904 179.042 161.904 180.461C161.904 181.888 161.714 183.107 161.335 184.117C160.956 185.123 160.408 185.892 159.692 186.425C158.976 186.953 158.115 187.217 157.11 187.217ZM157.11 185.511C157.996 185.511 158.689 185.078 159.187 184.213C159.69 183.348 159.941 182.097 159.941 180.461C159.941 179.374 159.826 178.456 159.596 177.706C159.37 176.952 159.044 176.381 158.618 175.993C158.196 175.601 157.694 175.405 157.11 175.405C156.228 175.405 155.535 175.839 155.032 176.709C154.529 177.578 154.276 178.829 154.272 180.461C154.272 181.552 154.385 182.474 154.61 183.229C154.841 183.979 155.167 184.548 155.588 184.935C156.01 185.319 156.517 185.511 157.11 185.511ZM168.492 187.179C167.691 187.179 166.971 187.026 166.332 186.719C165.697 186.408 165.19 185.982 164.811 185.44C164.431 184.899 164.229 184.281 164.203 183.587H166.121C166.168 184.149 166.417 184.612 166.869 184.974C167.32 185.336 167.862 185.517 168.492 185.517C168.995 185.517 169.441 185.402 169.828 185.172C170.22 184.938 170.527 184.616 170.749 184.207C170.975 183.798 171.088 183.331 171.088 182.807C171.088 182.274 170.972 181.799 170.742 181.381C170.512 180.964 170.195 180.636 169.79 180.397C169.389 180.158 168.929 180.037 168.409 180.033C168.013 180.033 167.615 180.101 167.214 180.237C166.813 180.374 166.49 180.553 166.242 180.774L164.433 180.506L165.169 173.909H172.366V175.603H166.811L166.396 179.266H166.472C166.728 179.018 167.067 178.812 167.489 178.646C167.915 178.479 168.371 178.396 168.857 178.396C169.654 178.396 170.363 178.586 170.985 178.965C171.612 179.344 172.104 179.862 172.462 180.518C172.824 181.17 173.003 181.92 172.999 182.768C173.003 183.616 172.811 184.373 172.423 185.038C172.04 185.702 171.507 186.227 170.825 186.61C170.148 186.989 169.37 187.179 168.492 187.179ZM179.904 187.179C179.32 187.17 178.745 187.064 178.178 186.859C177.615 186.655 177.104 186.314 176.644 185.837C176.184 185.359 175.815 184.718 175.538 183.913C175.265 183.107 175.129 182.102 175.129 180.896C175.129 179.754 175.242 178.739 175.468 177.853C175.698 176.967 176.028 176.219 176.458 175.609C176.889 174.996 177.409 174.529 178.018 174.21C178.627 173.89 179.311 173.73 180.07 173.73C180.85 173.73 181.542 173.884 182.147 174.19C182.752 174.497 183.243 174.921 183.618 175.462C183.997 176.004 184.238 176.619 184.34 177.31H182.39C182.258 176.764 181.996 176.319 181.604 175.974C181.212 175.629 180.701 175.456 180.07 175.456C179.111 175.456 178.363 175.874 177.826 176.709C177.294 177.544 177.025 178.705 177.021 180.192H177.117C177.343 179.822 177.62 179.506 177.948 179.246C178.28 178.982 178.651 178.78 179.06 178.639C179.473 178.494 179.908 178.422 180.364 178.422C181.123 178.422 181.809 178.607 182.422 178.978C183.04 179.344 183.532 179.852 183.899 180.499C184.265 181.147 184.449 181.888 184.449 182.724C184.449 183.559 184.259 184.315 183.88 184.993C183.505 185.67 182.976 186.207 182.294 186.604C181.613 186.996 180.816 187.188 179.904 187.179ZM179.897 185.517C180.4 185.517 180.85 185.393 181.246 185.146C181.642 184.899 181.956 184.567 182.186 184.149C182.416 183.732 182.531 183.265 182.531 182.749C182.531 182.246 182.418 181.788 182.192 181.375C181.971 180.962 181.664 180.634 181.272 180.391C180.884 180.148 180.441 180.026 179.942 180.026C179.563 180.026 179.211 180.099 178.887 180.244C178.568 180.388 178.287 180.589 178.044 180.844C177.801 181.1 177.609 181.394 177.468 181.727C177.332 182.055 177.264 182.402 177.264 182.768C177.264 183.259 177.377 183.712 177.603 184.13C177.833 184.548 178.146 184.884 178.542 185.14C178.943 185.391 179.395 185.517 179.897 185.517ZM193.695 173.909V187H191.719V173.909H193.695ZM201.001 177.182V178.716H195.638V177.182H201.001ZM197.076 174.83H198.987V184.117C198.987 184.488 199.043 184.767 199.153 184.955C199.264 185.138 199.407 185.263 199.582 185.332C199.761 185.396 199.955 185.428 200.163 185.428C200.317 185.428 200.451 185.417 200.566 185.396C200.681 185.374 200.771 185.357 200.835 185.344L201.18 186.923C201.069 186.966 200.911 187.009 200.707 187.051C200.502 187.098 200.246 187.124 199.94 187.128C199.437 187.136 198.968 187.047 198.533 186.859C198.099 186.672 197.747 186.382 197.479 185.99C197.21 185.598 197.076 185.106 197.076 184.513V174.83ZM207.241 187.198C206.274 187.198 205.441 186.991 204.742 186.578C204.047 186.161 203.51 185.575 203.131 184.82C202.756 184.062 202.568 183.173 202.568 182.155C202.568 181.149 202.756 180.263 203.131 179.496C203.51 178.729 204.039 178.13 204.716 177.7C205.398 177.269 206.195 177.054 207.107 177.054C207.661 177.054 208.198 177.146 208.718 177.329C209.237 177.512 209.704 177.8 210.117 178.192C210.531 178.584 210.857 179.093 211.095 179.719C211.334 180.342 211.453 181.098 211.453 181.989V182.666H203.649V181.234H209.58C209.58 180.732 209.478 180.286 209.274 179.898C209.069 179.506 208.781 179.197 208.411 178.972C208.044 178.746 207.614 178.633 207.119 178.633C206.583 178.633 206.114 178.765 205.713 179.029C205.317 179.289 205.01 179.63 204.793 180.052C204.58 180.469 204.473 180.923 204.473 181.413V182.532C204.473 183.188 204.588 183.746 204.818 184.207C205.053 184.667 205.379 185.018 205.796 185.261C206.214 185.5 206.702 185.619 207.26 185.619C207.622 185.619 207.953 185.568 208.251 185.466C208.549 185.359 208.807 185.202 209.024 184.993C209.242 184.784 209.408 184.526 209.523 184.219L211.332 184.545C211.187 185.078 210.927 185.545 210.552 185.945C210.181 186.342 209.715 186.651 209.152 186.872C208.594 187.089 207.957 187.198 207.241 187.198ZM213.574 187V177.182H215.408V178.78H215.53C215.734 178.239 216.069 177.817 216.533 177.514C216.998 177.207 217.554 177.054 218.202 177.054C218.858 177.054 219.408 177.207 219.851 177.514C220.298 177.821 220.629 178.243 220.842 178.78H220.944C221.178 178.256 221.551 177.838 222.062 177.527C222.574 177.212 223.183 177.054 223.891 177.054C224.781 177.054 225.508 177.333 226.07 177.891C226.637 178.45 226.92 179.291 226.92 180.416V187H225.009V180.595C225.009 179.93 224.828 179.449 224.466 179.151C224.104 178.852 223.671 178.703 223.168 178.703C222.546 178.703 222.062 178.895 221.717 179.278C221.372 179.658 221.2 180.146 221.2 180.742V187H219.295V180.474C219.295 179.941 219.129 179.513 218.796 179.189C218.464 178.865 218.031 178.703 217.499 178.703C217.136 178.703 216.802 178.799 216.495 178.991C216.192 179.178 215.947 179.44 215.76 179.777C215.577 180.114 215.485 180.504 215.485 180.947V187H213.574ZM236.839 179.579L235.107 179.886C235.035 179.664 234.92 179.453 234.762 179.253C234.608 179.053 234.4 178.888 234.135 178.761C233.871 178.633 233.541 178.569 233.145 178.569C232.604 178.569 232.152 178.69 231.79 178.933C231.427 179.172 231.246 179.481 231.246 179.86C231.246 180.188 231.368 180.452 231.611 180.653C231.854 180.853 232.246 181.017 232.787 181.145L234.346 181.503C235.25 181.712 235.923 182.033 236.366 182.468C236.809 182.903 237.031 183.467 237.031 184.162C237.031 184.75 236.861 185.274 236.52 185.734C236.183 186.19 235.712 186.548 235.107 186.808C234.506 187.068 233.809 187.198 233.017 187.198C231.917 187.198 231.02 186.964 230.326 186.495C229.631 186.022 229.205 185.351 229.047 184.482L230.895 184.2C231.01 184.682 231.246 185.046 231.604 185.293C231.962 185.536 232.429 185.658 233.004 185.658C233.631 185.658 234.131 185.528 234.506 185.268C234.881 185.004 235.069 184.682 235.069 184.303C235.069 183.996 234.954 183.738 234.724 183.529C234.498 183.32 234.15 183.163 233.682 183.056L232.02 182.692C231.104 182.483 230.426 182.151 229.987 181.695C229.552 181.239 229.335 180.661 229.335 179.962C229.335 179.383 229.497 178.876 229.821 178.441C230.145 178.006 230.592 177.668 231.163 177.425C231.734 177.178 232.388 177.054 233.126 177.054C234.187 177.054 235.022 177.284 235.631 177.744C236.241 178.2 236.643 178.812 236.839 179.579Z" fill="white"/>
</g>
</g>
<g filter="url(#filter1_d_0_465)">
<rect x="262" y="5" width="66" height="66" rx="10" fill="white"/>
</g>
<path fill-rule="evenodd" clip-rule="evenodd" d="M305.586 38.0006C305.856 37.1148 306 36.1802 306 35.2143C306 29.5731 301.075 25 295 25C288.925 25 284 29.5731 284 35.2143C284 36.1802 284.144 37.1148 284.414 38.0006C280.864 38.0465 278 40.9388 278 44.5C278 48.0899 280.91 51 284.5 51H305.5C309.09 51 312 48.0899 312 44.5C312 40.9388 309.136 38.0465 305.586 38.0006Z" fill="#54BD95"/>
<rect x="331" y="87" width="28" height="144" rx="14" fill="#0F8CE9"/>
<path d="M125 265.5H335.5" stroke="#E7ECF3" stroke-width="2" stroke-dasharray="12 12"/>
<path d="M125 304H335.5" stroke="#E7ECF3" stroke-width="2" stroke-dasharray="12 12"/>
<path d="M125 342.5H335.5" stroke="#E7ECF3" stroke-width="2" stroke-dasharray="12 12"/>
<rect x="80.5" y="240.5" width="265" height="133" rx="8.5" stroke="#E7ECF3"/>
<rect x="132" y="293" width="18" height="64" rx="9" fill="#54BD95"/>
<rect x="177" y="261" width="18" height="64" rx="9" fill="#54BD95"/>
<rect x="222" y="275" width="18" height="64" rx="9" fill="#54BD95"/>
<rect x="267" y="293" width="18" height="64" rx="9" fill="#54BD95"/>
<rect x="312" y="266" width="18" height="64" rx="9" fill="#54BD95"/>
<defs>
<filter id="filter0_d_0_465" x="0" y="6" width="355" height="262" filterUnits="userSpaceOnUse" color-interpolation-filters="sRGB">
<feFlood flood-opacity="0" result="BackgroundImageFix"/>
<feColorMatrix in="SourceAlpha" type="matrix" values="0 0 0 0 0 0 0 0 0 0 0 0 0 0 0 0 0 0 127 0" result="hardAlpha"/>
<feOffset dy="14"/>
<feGaussianBlur stdDeviation="22"/>
<feComposite in2="hardAlpha" operator="out"/>
<feColorMatrix type="matrix" values="0 0 0 0 0 0 0 0 0 0 0 0 0 0 0 0 0 0 0.15 0"/>
<feBlend mode="normal" in2="BackgroundImageFix" result="effect1_dropShadow_0_465"/>
<feBlend mode="normal" in="SourceGraphic" in2="effect1_dropShadow_0_465" result="shape"/>
</filter>
<filter id="filter1_d_0_465" x="253" y="0" width="84" height="84" filterUnits="userSpaceOnUse" color-interpolation-filters="sRGB">
<feFlood flood-opacity="0" result="BackgroundImageFix"/>
<feColorMatrix in="SourceAlpha" type="matrix" values="0 0 0 0 0 0 0 0 0 0 0 0 0 0 0 0 0 0 127 0" result="hardAlpha"/>
<feOffset dy="4"/>
<feGaussianBlur stdDeviation="4.5"/>
<feComposite in2="hardAlpha" operator="out"/>
<feColorMatrix type="matrix" values="0 0 0 0 0 0 0 0 0 0 0 0 0 0 0 0 0 0 0.05 0"/>
<feBlend mode="normal" in2="BackgroundImageFix" result="effect1_dropShadow_0_465"/>
<feBlend mode="normal" in="SourceGraphic" in2="effect1_dropShadow_0_465" result="shape"/>
</filter>
<clipPath id="clip0_0_465">
<rect x="44" y="36" width="267" height="174" rx="10" fill="white"/>
</clipPath>
</defs>
</svg>
