<svg width="190" height="190" viewBox="0 0 190 190" fill="none" xmlns="http://www.w3.org/2000/svg"><mask id="a" fill="#fff"><path d="M190 95a95.003 95.003 0 0 0-58.645-87.769A95 95 0 0 0 0 95h34.013a60.989 60.989 0 0 1 84.326-56.345A60.987 60.987 0 0 1 155.987 95H190Z"/></mask><path d="M190 95a95.003 95.003 0 0 0-58.645-87.769A95 95 0 0 0 0 95h34.013a60.989 60.989 0 0 1 84.326-56.345A60.987 60.987 0 0 1 155.987 95H190Z" stroke="#52459F" stroke-width="68" mask="url(#a)"/><mask id="b" fill="#fff"><path d="M190 95A95 95 0 0 0 0 95h34.03a60.97 60.97 0 1 1 121.94 0H190Z"/></mask><path d="M190 95A95 95 0 0 0 0 95h34.03a60.97 60.97 0 1 1 121.94 0H190Z" stroke="#0F8CE9" stroke-width="68" mask="url(#b)"/><mask id="c" fill="#fff"><path d="M190 95a95.002 95.002 0 0 0-63.132-89.495l-11.416 32.058A60.968 60.968 0 0 1 155.97 95H190Z"/></mask><path d="M190 95a95.002 95.002 0 0 0-63.132-89.495l-11.416 32.058A60.968 60.968 0 0 1 155.97 95H190Z" stroke="#54BD95" stroke-width="68" mask="url(#c)"/><mask id="d" fill="#fff"><path d="M190 95a94.997 94.997 0 0 0-58.451-87.688l-13.092 31.41A60.972 60.972 0 0 1 155.97 95H190Z"/></mask><path d="M190 95a94.997 94.997 0 0 0-58.451-87.688l-13.092 31.41A60.972 60.972 0 0 1 155.97 95H190Z" stroke="#FEE900" stroke-width="68" mask="url(#d)"/><path d="M8.534 119.139a4.092 4.092 0 0 1-1.342-.248 3.15 3.15 0 0 1-1.193-.796c-.358-.371-.645-.87-.86-1.496-.213-.627-.319-1.409-.319-2.347 0-.888.088-1.677.264-2.366.179-.69.436-1.271.77-1.745.335-.478.74-.841 1.213-1.089a3.378 3.378 0 0 1 1.596-.373c.607 0 1.145.119 1.616.358.47.239.852.568 1.144.989.295.421.482.9.561 1.437h-1.516a1.958 1.958 0 0 0-.611-1.039c-.305-.268-.703-.403-1.194-.403-.745 0-1.327.325-1.745.975-.414.649-.623 1.553-.626 2.709h.074c.176-.288.392-.533.647-.736a3.036 3.036 0 0 1 1.88-.641c.589 0 1.123.144 1.6.433.48.285.863.679 1.148 1.183.285.504.428 1.08.428 1.73a3.55 3.55 0 0 1-.443 1.765 3.242 3.242 0 0 1-1.232 1.253c-.53.305-1.15.454-1.86.447Zm-.005-1.292c.391 0 .74-.097 1.05-.289.307-.192.551-.451.73-.775a2.22 2.22 0 0 0 .268-1.089c0-.391-.087-.748-.263-1.069a1.994 1.994 0 0 0-.716-.766 1.906 1.906 0 0 0-1.034-.283 1.98 1.98 0 0 0-1.477.636 2.28 2.28 0 0 0-.447.686c-.106.256-.16.526-.16.811a2.159 2.159 0 0 0 .994 1.844c.313.196.664.294 1.055.294Zm8.895 1.322c-.785-.003-1.456-.21-2.013-.621-.557-.411-.983-1.01-1.278-1.795-.295-.786-.442-1.732-.442-2.839 0-1.104.147-2.047.442-2.829.299-.782.726-1.379 1.283-1.79.56-.411 1.23-.616 2.008-.616.78 0 1.447.207 2.004.621.557.411.983 1.008 1.278 1.79.298.779.447 1.72.447 2.824 0 1.11-.147 2.058-.442 2.844-.295.782-.721 1.38-1.278 1.795-.557.411-1.226.616-2.009.616Zm0-1.327c.69 0 1.229-.337 1.616-1.01.391-.672.587-1.645.587-2.918 0-.845-.09-1.559-.268-2.143-.176-.586-.43-1.03-.761-1.332a1.664 1.664 0 0 0-1.174-.457c-.686 0-1.224.338-1.615 1.014-.391.676-.588 1.649-.592 2.918 0 .849.088 1.566.264 2.153.179.583.432 1.026.76 1.327a1.7 1.7 0 0 0 1.183.448Zm10.808-.751v-.537c0-.384.08-.736.238-1.054a1.92 1.92 0 0 1 .706-.771c.312-.195.688-.293 1.129-.293.45 0 .828.096 1.133.288.305.193.536.45.691.771.16.322.239.675.239 1.059v.537c0 .384-.08.737-.239 1.059a1.906 1.906 0 0 1-.7.77c-.306.193-.68.289-1.124.289-.448 0-.826-.096-1.134-.289a1.908 1.908 0 0 1-.7-.77 2.358 2.358 0 0 1-.24-1.059Zm1.158-.537v.537c0 .285.068.543.204.775.136.232.373.348.71.348.335 0 .57-.116.702-.348.132-.232.198-.49.198-.775v-.537a1.57 1.57 0 0 0-.193-.776c-.126-.232-.362-.348-.706-.348-.332 0-.567.116-.706.348a1.48 1.48 0 0 0-.21.776Zm-6.28-5.29v-.537c0-.384.08-.737.24-1.059.162-.321.397-.578.705-.77.312-.193.688-.289 1.129-.289.45 0 .828.096 1.133.289.305.192.536.449.692.77.155.322.233.675.233 1.059v.537c0 .385-.08.738-.238 1.059a1.881 1.881 0 0 1-.697.771c-.304.192-.679.288-1.123.288-.45 0-.83-.096-1.139-.288a1.928 1.928 0 0 1-.696-.771 2.351 2.351 0 0 1-.238-1.059Zm1.164-.537v.537c0 .285.066.544.199.776.136.232.373.348.71.348.332 0 .564-.116.697-.348.136-.232.204-.491.204-.776v-.537c0-.285-.065-.543-.194-.775-.13-.232-.365-.348-.706-.348-.332 0-.567.116-.706.348-.136.232-.204.49-.204.775Zm-.69 8.273 7-10.182h1.187l-7 10.182h-1.188Zm137.182-1.989v-1.243l4.399-6.95h.98v1.83h-.622l-3.147 4.981v.08h6.031v1.302h-7.641Zm4.827 1.989v-2.366l.01-.567v-7.249h1.457V119h-1.467Zm8.091.169c-.785-.003-1.456-.21-2.013-.621-.557-.411-.983-1.01-1.278-1.795-.295-.786-.442-1.732-.442-2.839 0-1.104.147-2.047.442-2.829.298-.782.726-1.379 1.283-1.79.56-.411 1.229-.616 2.008-.616.779 0 1.447.207 2.004.621.557.411.983 1.008 1.278 1.79.298.779.447 1.72.447 2.824 0 1.11-.147 2.058-.442 2.844-.295.782-.721 1.38-1.278 1.795-.557.411-1.226.616-2.009.616Zm0-1.327c.69 0 1.228-.337 1.616-1.01.391-.672.587-1.645.587-2.918 0-.845-.09-1.559-.269-2.143-.175-.586-.429-1.03-.76-1.332a1.667 1.667 0 0 0-1.174-.457c-.686 0-1.224.338-1.615 1.014-.392.676-.589 1.649-.592 2.918 0 .849.088 1.566.263 2.153.179.583.433 1.026.761 1.327a1.7 1.7 0 0 0 1.183.448Zm10.807-.751v-.537c0-.384.08-.736.239-1.054.162-.321.398-.578.706-.771.311-.195.688-.293 1.128-.293.451 0 .829.096 1.134.288.305.193.535.45.691.771.159.322.239.675.239 1.059v.537c0 .384-.08.737-.239 1.059a1.909 1.909 0 0 1-.701.77c-.305.193-.679.289-1.124.289-.447 0-.825-.096-1.133-.289a1.909 1.909 0 0 1-.701-.77 2.36 2.36 0 0 1-.239-1.059Zm1.159-.537v.537c0 .285.068.543.204.775.135.232.372.348.71.348.335 0 .569-.116.701-.348a1.53 1.53 0 0 0 .199-.775v-.537a1.56 1.56 0 0 0-.194-.776c-.126-.232-.361-.348-.706-.348-.331 0-.566.116-.706.348a1.481 1.481 0 0 0-.208.776Zm-6.279-5.29v-.537c0-.384.079-.737.238-1.059.163-.321.398-.578.706-.77.312-.193.688-.289 1.129-.289.45 0 .828.096 1.133.289.305.192.536.449.691.77.156.322.234.675.234 1.059v.537c0 .385-.08.738-.239 1.059a1.87 1.87 0 0 1-.696.771c-.305.192-.679.288-1.123.288-.451 0-.831-.096-1.139-.288a1.927 1.927 0 0 1-.696-.771 2.352 2.352 0 0 1-.238-1.059Zm1.163-.537v.537c0 .285.066.544.199.776.136.232.373.348.711.348.331 0 .563-.116.696-.348.136-.232.204-.491.204-.776v-.537c0-.285-.065-.543-.194-.775-.13-.232-.365-.348-.706-.348-.332 0-.567.116-.706.348-.136.232-.204.49-.204.775Zm-.691 8.273 7-10.182h1.188l-7 10.182h-1.188Z" fill="#000"/><circle cx="95" cy="95" r="39" fill="#FEFEFD"/><circle cx="95" cy="95" r="30" fill="#E6F9FD"/><path d="M87.48 107.757c5.053 3.14 11.405 1.44 14.219-3.805.981-1.829 1.355-3.925 1.342-5.846l-.216-14.392c.001-.93-.564-1.748-1.273-2.189-.71-.44-1.613-.536-2.397-.092L87.469 88.42c-1.558.945-3.035 2.314-4.033 4.174-2.814 5.245-1.009 12.022 4.044 15.162Zm6.588-12.28c1.835 1.14 2.5 3.627 1.478 5.532-1.022 1.905-3.356 2.529-5.19 1.389-1.836-1.14-2.5-3.627-1.478-5.532 1.025-1.912 3.355-2.53 5.19-1.39Z" fill="#0F8CE9"/></svg>