<svg width="320" height="352" viewBox="0 0 320 352" fill="none" xmlns="http://www.w3.org/2000/svg"><path fill="#DBE5FA" d="M85 17h235v15H85zm0 25h214v15H85zm0 25h190v15H85zm0 25h168v15H85zm0 45h235v15H85zm0 25h214v15H85zm0 25h190v15H85zm0 25h168v15H85z"/><rect y="17" width="63" height="90" rx="2" fill="#54BD95"/><rect y="142" width="63" height="90" rx="2" fill="#0F8CE9"/><circle cx="168" cy="32" r="25" transform="rotate(180 168 32)" fill="#54BD95"/><path d="M220.5 22.259 208 2l54 9.388L218 44l2.5-21.741Z" fill="#54BD95" stroke="#fff" stroke-width="2"/><circle cx="45" cy="307" r="45" fill="#DBE5FA"/><circle cx="160" cy="307" r="45" fill="#0F8CE9"/><circle cx="275" cy="307" r="45" fill="#54BD95"/><circle cx="295" cy="307" r="4" fill="#fff"/><circle cx="280" cy="307" r="6" fill="#fff"/><circle cx="260" cy="307" r="9" fill="#fff"/></svg>