<svg width="145" height="36" viewBox="0 0 145 36" fill="none" xmlns="http://www.w3.org/2000/svg"><path d="M68.082 7.182V29h-3.516l-10.28-14.861h-.182V29h-3.952V7.182h3.537l10.27 14.872h.192V7.182h3.93ZM79.356 29.32c-1.598 0-2.983-.352-4.155-1.055-1.172-.703-2.081-1.687-2.727-2.951-.64-1.264-.96-2.742-.96-4.432 0-1.69.32-3.171.96-4.442.646-1.272 1.555-2.259 2.727-2.962 1.172-.703 2.557-1.055 4.155-1.055 1.598 0 2.983.352 4.154 1.055 1.172.703 2.078 1.69 2.717 2.962.646 1.27.97 2.752.97 4.442 0 1.69-.324 3.168-.97 4.432-.64 1.264-1.545 2.248-2.717 2.95-1.171.704-2.556 1.056-4.154 1.056Zm.021-3.09c.866 0 1.59-.238 2.173-.714.583-.483 1.016-1.129 1.3-1.939.291-.81.437-1.711.437-2.706 0-1.001-.146-1.906-.437-2.716-.284-.817-.717-1.467-1.3-1.95-.582-.483-1.307-.724-2.173-.724-.888 0-1.626.241-2.216.724-.582.483-1.02 1.133-1.31 1.95-.284.81-.427 1.715-.427 2.716 0 .995.143 1.897.427 2.706.29.81.728 1.456 1.31 1.94.59.475 1.328.713 2.216.713Zm19.264-13.594v2.983h-9.407v-2.983h9.407Zm-7.085-3.92h3.857v15.362c0 .519.078.916.234 1.193.164.27.377.455.64.554.262.1.554.15.873.15.242 0 .462-.018.66-.054a5.3 5.3 0 0 0 .47-.096l.65 3.015a8.59 8.59 0 0 1-.885.235 7.241 7.241 0 0 1-1.385.149c-.966.028-1.836-.117-2.61-.437a4.06 4.06 0 0 1-1.843-1.513c-.448-.682-.668-1.534-.66-2.557V8.716ZM101.867 29V12.636h3.857V29h-3.857Zm1.939-18.686a2.247 2.247 0 0 1-1.576-.607c-.441-.412-.661-.906-.661-1.481 0-.583.22-1.076.661-1.481.44-.412.965-.618 1.576-.618.618 0 1.144.206 1.577.618.44.405.66.898.66 1.48 0 .576-.22 1.07-.66 1.482-.433.404-.959.607-1.577.607Zm13.021 19.006c-1.598 0-2.983-.352-4.154-1.055-1.172-.703-2.081-1.687-2.728-2.951-.639-1.264-.959-2.742-.959-4.432 0-1.69.32-3.171.959-4.442.647-1.272 1.556-2.259 2.728-2.962 1.171-.703 2.556-1.055 4.154-1.055 1.598 0 2.983.352 4.155 1.055 1.172.703 2.078 1.69 2.717 2.962.646 1.27.969 2.752.969 4.442 0 1.69-.323 3.168-.969 4.432-.639 1.264-1.545 2.248-2.717 2.95-1.172.704-2.557 1.056-4.155 1.056Zm.022-3.09c.866 0 1.591-.238 2.173-.714.582-.483 1.016-1.129 1.3-1.939.291-.81.436-1.711.436-2.706 0-1.001-.145-1.906-.436-2.716-.284-.817-.718-1.467-1.3-1.95-.582-.483-1.307-.724-2.173-.724-.888 0-1.627.241-2.216.724-.583.483-1.019 1.133-1.311 1.95-.284.81-.426 1.715-.426 2.716 0 .995.142 1.897.426 2.706.292.81.728 1.456 1.311 1.94.589.475 1.328.713 2.216.713Zm14.949-6.818V29h-3.856V12.636h3.686v2.78h.191a4.68 4.68 0 0 1 1.801-2.183c.831-.54 1.857-.81 3.079-.81 1.129 0 2.113.242 2.951.725.845.483 1.498 1.182 1.96 2.098.469.917.699 2.028.692 3.335V29h-3.856v-9.822c0-1.094-.284-1.95-.852-2.568-.562-.618-1.339-.927-2.334-.927-.674 0-1.274.15-1.8.448a3.103 3.103 0 0 0-1.225 1.267c-.291.554-.437 1.226-.437 2.014Zm-103.41-4.958V29h-2.344l-6.854-9.908h-.12V29h-2.635V14.454h2.358l6.846 9.915h.128v-9.915h2.62Z" fill="#A6A6A6"/><path stroke="#A6A6A6" stroke-width="2" d="M9 9h28v26H9zM2.661 2l5.715 5h26.963l-5.715-5H2.661Z"/><path d="M8 8 0 1v28l8 7V8Z" fill="#A6A6A6"/></svg>