<svg width="49" height="49" viewBox="0 0 49 49" fill="none" xmlns="http://www.w3.org/2000/svg"><rect y="10.352" width="40" height="40" rx="10" transform="rotate(-15 0 10.352)" fill="#74C9A9"/><g clip-path="url(#a)" stroke="#fff" stroke-width="1.667" stroke-linecap="round" stroke-linejoin="round"><path d="m28.188 15.74-11.27 3.02a1.667 1.667 0 0 0-1.178 2.041l3.02 11.27a1.667 1.667 0 0 0 2.04 1.178l11.27-3.02a1.667 1.667 0 0 0 1.178-2.04l-3.02-11.27a1.667 1.667 0 0 0-2.04-1.178Z"/><path d="M21.246 23.64a1.25 1.25 0 1 0-.647-2.415 1.25 1.25 0 0 0 .647 2.415Zm11.14 1.328-5.103-2.946L20.8 33.25"/></g><defs><clipPath id="a"><path fill="#fff" transform="rotate(-15 72.296 -37.801)" d="M0 0h20v20H0z"/></clipPath></defs></svg>